<svg width="512" height="512" viewBox="0 0 512 512" fill="none" xmlns="http://www.w3.org/2000/svg">
<path fill-rule="evenodd" clip-rule="evenodd" d="M362.667 106.667C333.333 85.3333 296 74.6667 256 74.6667C150 74.6667 85.3333 138.667 85.3333 213.333C85.3333 288 128 320 192 341.333L213.333 348.444C256 362.667 277.333 373.333 277.333 394.667C277.333 416 256 426.667 213.333 426.667C170.667 426.667 138.667 405.333 117.333 373.333L64 405.333C96 458.667 149.333 490.667 213.333 490.667C319.333 490.667 384 426.667 384 352C384 277.333 341.333 245.333 277.333 224L256 216.889C213.333 202.667 192 192 192 170.667C192 149.333 213.333 138.667 256 138.667C288 138.667 320 154.667 341.333 181.333L394.667 138.667C394.667 138.667 384 122.667 362.667 106.667Z" fill="url(#paint0_linear)"/>
<defs>
<linearGradient id="paint0_linear" x1="85.3333" y1="282.667" x2="384" y2="282.667" gradientUnits="userSpaceOnUse">
<stop stop-color="#0EA5E9"/>
<stop offset="1" stop-color="#F59E0B"/>
</linearGradient>
</defs>
</svg>
